<svg width="21" height="21" viewBox="0 0 24 24" fill="none" xmlns="http://www.w3.org/2000/svg">
<path d="M5.99927 14.0001L7.49927 11.1001C7.66234 10.7762 7.91039 10.5028 8.21688 10.309C8.52337 10.1153 8.87677 10.0085 9.23927 10.0001H19.9993M19.9993 10.0001C20.3048 9.99956 20.6064 10.069 20.8809 10.2032C21.1554 10.3373 21.3955 10.5326 21.5828 10.774C21.7702 11.0153 21.8997 11.2964 21.9615 11.5956C22.0232 11.8949 22.0157 12.2043 21.9393 12.5001L20.3993 18.5001C20.2878 18.9317 20.0355 19.3136 19.6822 19.5854C19.3289 19.8571 18.895 20.0031 18.4493 20.0001H3.99927C3.46883 20.0001 2.96013 19.7894 2.58505 19.4143C2.20998 19.0392 1.99927 18.5305 1.99927 18.0001V5.0001C1.99927 4.46966 2.20998 3.96096 2.58505 3.58588C2.96013 3.21081 3.46883 3.0001 3.99927 3.0001H7.89927C8.23375 2.99682 8.56372 3.07748 8.85897 3.23472C9.15421 3.39195 9.40531 3.62072 9.58927 3.9001L10.3993 5.1001C10.5814 5.37663 10.8293 5.60362 11.1208 5.7607C11.4122 5.91778 11.7382 6.00004 12.0693 6.0001H17.9993C18.5297 6.0001 19.0384 6.21081 19.4135 6.58588C19.7886 6.96096 19.9993 7.46966 19.9993 8.0001V10.0001Z" stroke="#475569" stroke-width="2" stroke-linecap="round"/>
</svg>
